<svg id="visual" viewBox="0 0 900 600" width="900" height="600" xmlns="http://www.w3.org/2000/svg" xmlns:xlink="http://www.w3.org/1999/xlink" version="1.1"><rect x="0" y="0" width="900" height="600" fill="#001220"></rect><defs><linearGradient id="grad1_0" x1="33.3%" y1="0%" x2="100%" y2="100%"><stop offset="20%" stop-color="#001220" stop-opacity="1"></stop><stop offset="80%" stop-color="#001220" stop-opacity="1"></stop></linearGradient></defs><defs><linearGradient id="grad2_0" x1="0%" y1="0%" x2="66.7%" y2="100%"><stop offset="20%" stop-color="#001220" stop-opacity="1"></stop><stop offset="80%" stop-color="#001220" stop-opacity="1"></stop></linearGradient></defs><g transform="translate(900, 0)"><path d="M0 405.6C-38.1 365.2 -76.3 324.7 -129 311.3C-181.7 298 -248.9 311.7 -286.8 286.8C-324.8 262 -333.4 198.5 -348.3 144.3C-363.2 90 -384.4 45 -405.6 0L0 0Z" fill="#715DF2"></path></g><g transform="translate(0, 600)"><path d="M0 -405.6C52.6 -400.1 105.2 -394.6 155.2 -374.7C205.3 -354.9 252.7 -320.8 277.2 -277.2C301.6 -233.6 303 -180.6 320.6 -132.8C338.2 -85 371.9 -42.5 405.6 0L0 0Z" fill="#715DF2"></path></g></svg>